PathFileType	3	(X/Y/Z)	D:\minhoCalibration\240510\subject1_KPNP\preferred\preferred19.trc
DataRate	CameraRate	NumFrames	NumMarkers	Units	OrigDataRate	OrigDataStartFrame	OrigNumFrames
200.0	200.0	18	10	mm	200.0	231	186	
Frame#	Time	Left_Ankle_Outer1			Left_Ankle_Inner1			Left_Knee_Outer1			Left_Knee_Inner1			Left_Wrist1			Right_Wrist1			Right_Knee_Inner1			Right_Knee_Outer1			Right_Ankle_Inner1			Right_Ankle_Outer1			
		X1	Y1	Z1	X2	Y2	Z2	X3	Y3	Z3	X4	Y4	Z4	X5	Y5	Z5	X6	Y6	Z6	X7	Y7	Z7	X8	Y8	Z8	X9	Y9	Z9	X10	Y10	Z10	
231	1.145	-526.1861	116.49735	-601.15936	-580.19421	119.65159	-588.24274	-499.54868	530.26196	-397.44086	-605.48657	500.71652	-431.71216	-474.90506	961.32428	-567.06488	-754.90137	965.83673	-776.65338	-865.45819	509.6987	-700.96332	-906.90186	557.58624	-803.85748	-731.86877	193.69379	-998.8559	-801.95239	206.47899	-1083.2019
232	1.15	-525.82062	116.11242	-601.06976	-579.62042	119.23164	-588.10553	-496.9906	530.27185	-398.96619	-602.78912	501.56247	-432.15134	-471.46484	964.55029	-563.59955	-753.6087	967.28638	-770.52942	-871.20892	516.37921	-685.05988	-913.04962	562.61896	-787.47864	-734.49963	204.71727	-988.5741	-805.81036	216.9644	-1071.6946
233	1.155	-525.10394	115.90128	-601.07635	-578.99182	119.72765	-588.42401	-494.37585	530.55768	-400.89929	-599.90424	502.6257	-432.6687	-467.8981	967.85815	-560.39294	-751.96826	969.9621	-764.75848	-875.68298	523.16199	-668.5575	-919.19135	568.34955	-771.27179	-735.76532	216.87929	-978.0863	-809.46783	227.87611	-1059.4127
234	1.16	-524.12488	115.76888	-601.13184	-578.0011	119.79863	-588.67151	-491.84399	531.03516	-403.0614	-597.20245	503.58618	-433.49747	-464.18262	971.26862	-557.56812	-751.18872	972.62134	-758.24481	-879.48694	530.78461	-650.38556	-924.68219	574.07172	-753.73083	-737.07697	229.87039	-967.31	-812.77985	238.77956	-1046.3794
235	1.165	-522.91571	115.76215	-601.23816	-576.8905	120.01257	-588.96637	-489.20032	531.68164	-405.42874	-594.42773	504.63373	-434.6377	-460.0643	974.68445	-555.30347	-750.86987	975.78784	-751.06183	-881.39636	537.24719	-634.75787	-929.78284	580.30273	-736.12054	-736.80035	244.26678	-956.06775	-815.43213	249.62993	-1032.6641
236	1.17	-521.59119	115.73708	-601.35565	-575.13452	119.93729	-589.16571	-486.60004	532.52039	-408.02585	-591.52277	505.77628	-436.31552	-455.59213	978.05646	-553.94293	-751.49274	979.66241	-743.24536	-883.02014	544.29047	-617.34991	-934.29688	586.68512	-718.15894	-736.05762	259.362	-944.48669	-817.29266	259.6582	-1017.8718
237	1.175	-520.07587	115.79144	-601.52179	-574.12158	120.55251	-589.7439	-483.91101	533.46405	-410.83548	-588.55432	507.04056	-438.5708	-450.56625	981.2644	-553.57874	-752.10736	983.7262	-734.10376	-883.74207	551.21814	-599.63293	-938.10492	593.15112	-699.68256	-734.43579	275.16809	-932.35162	-817.76233	270.86435	-1003.0923
238	1.18	-518.41376	116.10002	-601.76587	-572.28223	121.07726	-590.23871	-481.08789	534.66498	-413.86572	-585.13715	508.36157	-442.25659	-445.12912	984.23737	-554.43109	-753.82104	988.74445	-724.22198	-883.78363	558.09583	-581.17621	-941.1012	599.60522	-680.81787	-732.18188	291.40152	-919.36493	-817.07062	282.65784	-988.22498
239	1.185	-516.95422	116.31169	-602.06091	-570.66412	121.69745	-590.67438	-477.98291	535.96228	-417.11514	-582.21472	509.81467	-445.70767	-439.61288	986.9928	-556.75366	-754.68976	993.30914	-714.02435	-882.97656	564.72028	-562.56055	-943.34436	606.26312	-661.40967	-729.23969	308.26633	-904.78406	-814.53131	295.23871	-973.09924
240	1.19	-515.55212	116.67295	-602.40845	-569.38831	122.36477	-591.05487	-474.6572	537.492	-420.62579	-579.10516	511.65195	-449.30554	-433.64966	989.56171	-559.80072	-755.73175	998.98926	-702.4765	-881.38379	571.46674	-543.02545	-944.92694	612.86951	-641.29694	-726.25391	324.45306	-889.5108	-810.81519	309.55356	-957.83221
241	1.195	-514.06683	117.20871	-602.84851	-567.66974	123.1799	-591.37347	-471.12988	539.19769	-424.5434	-575.90424	513.67053	-453.03342	-427.54544	991.97742	-563.94482	-756.91998	1004.4219	-690.51031	-878.6394	578.13593	-522.73651	-945.51703	619.82709	-620.46265	-723.08136	340.81763	-873.3316	-806.81604	325.65271	-942.66028
242	1.2	-512.81573	117.78487	-603.20844	-566.16583	124.24033	-591.77356	-467.24588	541.01544	-428.72867	-572.41766	515.82837	-456.83817	-421.41882	994.33618	-569.04242	-757.44745	1010.0165	-678.37085	-875.01196	585.19513	-502.18909	-945.34448	626.91559	-598.20007	-719.63428	357.99448	-857.14417	-802.56952	342.93423	-926.99078
243	1.205	-511.48206	118.59202	-603.6792	-564.89929	125.34952	-591.80597	-463.05243	542.96375	-433.32452	-568.72943	518.14264	-460.58197	-415.34201	996.83466	-574.87659	-757.32037	1015.9286	-665.74396	-870.10803	592.57343	-481.35223	-944.05243	634.23822	-573.69482	-716.25476	375.67923	-840.22662	-798.9859	360.71771	-910.38922
244	1.21	-510.3309	119.48813	-604.08722	-563.48059	126.6253	-591.80573	-458.63437	545.1358	-438.2305	-564.66492	520.62848	-463.97772	-409.18457	999.43219	-581.50366	-756.45239	1021.2488	-653.45532	-863.56335	600.57776	-459.31116	-942.08582	642.42548	-549.16718	-713.27844	393.55176	-823.46497	-796.39545	379.55759	-893.58893
245	1.215	-509.28391	120.68039	-604.51581	-562.27942	128.2365	-591.58197	-453.35342	547.60022	-443.54178	-560.37207	523.23358	-467.19806	-404.15213	1002.267	-588.13196	-755.64886	1027.3224	-640.75574	-855.55951	609.42432	-437.31848	-939.06592	651.22089	-523.74243	-710.66687	412.17819	-806.55426	-794.55115	398.79224	-875.74957
246	1.22	-508.20905	122.14092	-604.82471	-561.55566	129.89189	-590.41119	-448.27756	550.04248	-448.92566	-555.79327	525.94415	-469.89307	-399.61826	1005.4595	-595.21881	-753.64136	1033.1147	-628.75781	-846.0379	618.93695	-414.88559	-934.80383	660.49866	-497.53937	-708.54315	431.33539	-789.68439	-793.76117	418.41357	-857.34991
247	1.225	-507.39783	123.7716	-605.02271	-560.23553	132.20444	-590.00403	-442.66116	552.68243	-454.21106	-551.39496	528.74817	-471.60474	-395.71643	1008.832	-602.56494	-751.35046	1039.6007	-616.80829	-835.2619	629.56305	-392.56177	-929.13879	670.42926	-470.57629	-707.11011	451.01837	-772.8479	-794.34918	438.21146	-838.39258
248	1.23	-506.66727	125.56806	-605.06879	-558.85229	134.27148	-588.59436	-436.7294	555.40637	-459.43579	-546.24164	531.75458	-473.23087	-392.81815	1012.0538	-610.21564	-748.95801	1046.1676	-604.98627	-823.0022	640.78027	-369.83475	-921.60321	680.94983	-443.39368	-706.44135	471.19055	-756.23987	-795.89526	458.31497	-818.91058
